<?xml version="1.0" encoding="utf-8"?>
<!-- Generator: Adobe Illustrator 19.0.0, SVG Export Plug-In . SVG Version: 6.00 Build 0)  -->
<svg version="1.1"
	 id="svg2" xmlns:svg="http://www.w3.org/2000/svg" xmlns:cc="http://web.resource.org/cc/" xmlns:sodipodi="http://sodipodi.sourceforge.net/DTD/sodipodi-0.dtd" xmlns:dc="http://purl.org/dc/elements/1.1/" xmlns:inkscape="http://www.inkscape.org/namespaces/inkscape" xmlns:rdf="http://www.w3.org/1999/02/22-rdf-syntax-ns#" sodipodi:version="0.32" inkscape:version="0.45" sodipodi:docbase="C:\Users\squilibob\Desktop" sodipodi:docname="ã‚ æ•™ç§‘æ›¸ä½“.svg" inkscape:output_extension="org.inkscape.output.svg.inkscape" sodipodi:modified="true"
	 xmlns="http://www.w3.org/2000/svg" xmlns:xlink="http://www.w3.org/1999/xlink" x="0px" y="0px" viewBox="-280.9 444.5 331.8 393"
	 style="enable-background:new -280.9 444.5 331.8 393;" xml:space="preserve">
<style type="text/css">
	.st0{fill:#FFFFFF;}
</style>
<sodipodi:namedview  borderopacity="1.0" id="base" bordercolor="#666666" inkscape:zoom="2" guidetolerance="10" objecttolerance="10" pagecolor="#ffffff" inkscape:cy="240.01852" inkscape:cx="236.79141" gridtolerance="10000" inkscape:pageopacity="0.0" inkscape:pageshadow="2" inkscape:document-units="px" inkscape:current-layer="layer1" inkscape:window-width="1600" inkscape:window-x="-8" inkscape:window-height="1150" inkscape:window-y="-8">
	</sodipodi:namedview>
<g id="layer1" transform="translate(-121.42857,-236.6479)" inkscape:label="Layer 1" inkscape:groupmode="layer">
	<path id="path2184" class="st0" d="M37.6,1072.6c-2.7-1.9-2.9-4.6-0.4-6.7c1-0.9,6.5-3.2,12.3-5.2c22.1-7.6,43.7-19.8,61.5-34.6
		c12.4-10.3,17.7-16.7,23.4-27.9c6.8-13.4,8.5-23.6,7.8-44.7c-0.6-16.4-1.6-22-6.1-31.7c-9.5-20.7-30.6-32.7-61.6-34.9l-8.5-0.6
		l-9.5,14.8C35,934,9.7,968.1-9.6,989.5c-3.9,4.3-7.1,8.3-7.1,8.7s2.1,6.4,4.6,13.1c5,13.3,5.7,18.8,3.5,27
		c-1.6,5.6-5.6,10.5-9.3,11.4c-2.1,0.5-3.5-0.1-6.7-3c-3.2-2.9-4.9-5.8-8.1-14c-2.2-5.7-4-10.8-4-11.4c0-2.8-3-1.5-14.7,6.2
		c-22.7,14.9-44.5,25.1-64.9,30.2c-11.4,2.9-16.8,3.1-24.3,0.7c-12.3-3.9-17.9-14.1-18.8-34.3c-0.9-20.7,4.6-38.3,17.3-55
		c5.6-7.3,25.9-26.9,36.4-35.2c14.6-11.4,39.4-27,53.1-33.4l3.6-1.7l0.6-15.7c0.7-17.4,2.9-41.5,5.3-59.4c0.9-6.5,1.3-12.1,1-12.4
		c-0.3-0.3-7.2,0.4-15.4,1.5c-8.1,1.2-19.1,2.4-24.3,2.7s-12.4,1-15.8,1.6c-5.9,0.9-6.6,0.8-10.5-1.5c-5.4-3.2-18.6-17-21-22
		c-3.6-7.6,2.1-12.1,9.2-7.3c9.2,6.3,12.5,7.1,28.7,7.1c16.4-0.1,50.2-3.8,52.1-5.8c1.2-1.2,6-27.3,8.9-47.7
		c1.9-13.4,3.1-34.6,2.2-38.2c-0.3-1.4-3.1-5.3-6.1-8.7c-3-3.4-5.5-6.8-5.5-7.6c0-1.2,2.5-4.5,3.4-4.5c2.1,0,15.6,5.6,18.8,7.8
		c9.4,6.4,17.7,17.8,17.8,24.2c0,1.4-0.7,4.8-1.5,7.5c-0.9,2.8-4.2,17.9-7.3,33.8c-4.5,22.2-5.5,28.8-4.4,28.8
		c0.8,0,11.8-2.5,24.6-5.6c22.8-5.5,26.7-6.8,35.7-12c4.1-2.4,5.2-2.6,12.5-2.1c13.5,0.8,27.6,7.8,28.3,14.1
		c0.7,5.9-4.5,8.5-30.3,15.1c-12,3-44.1,9.6-61.5,12.5c-6.9,1.2-13.2,2.3-14.1,2.6c-2.4,0.7-7,37.4-8.5,68.1l-0.7,13.2l8.4-3
		c16.7-5.9,36.1-10.9,53.9-13.8c11-1.8,10.8-1.7,12-5.8c0.6-2.1,1.3-7.8,1.6-12.7c0.7-12,1.1-13.5,3.3-13.5c3.2,0,6.2,4.5,11.1,17.1
		l4.8,12.4l8.4,0.7c26.2,2.1,46.2,8.2,61.6,18.6c23.5,15.9,34.2,36.9,34.3,66.8c0,29.6-9.9,52.8-31.1,72.8
		c-19.1,18-47.3,31.6-87.4,42.2c-7.1,1.9-13.2,3.4-13.5,3.4C40,1074.1,38.8,1073.4,37.6,1072.6z M-99.1,1024.7
		c11.8-3.5,41.4-19.1,54.7-28.9c1.5-1.1,1.6-2,0.3-10.7c-2.1-14.2-3.4-30.5-4.1-50.2l-0.7-17.8l-5.6,3.1c-9.1,5.1-31,19.7-39.9,26.6
		c-29.2,22.8-41.6,41-43,62.9c-1,16.1,1.7,18.7,18.7,17.9C-111.3,1027.5-105.4,1026.5-99.1,1024.7z M-12.9,961.6
		c15.9-18.9,30.5-39.3,45.6-63.7c7.7-12.5,8.4-12-9.5-8.2c-13.7,2.9-25.8,6.7-40.1,12.7l-9.8,4.1l0,9.5c0,10.7,1.6,41.5,2.6,50.3
		c0.4,3.6,1.1,5.6,1.8,5.4C-21.7,971.7-17.4,967.1-12.9,961.6z"/>
</g>
</svg>
